<svg width="4" height="4" viewBox="0 0 4 4" fill="none" xmlns="http://www.w3.org/2000/svg">
<mask id="mask0_1_15" style="mask-type:luminance" maskUnits="userSpaceOnUse" x="0" y="0" width="4" height="4">
<path d="M0.541988 0.541992H3.06573V3.08588H0.541988V0.541992Z" fill="white"/>
</mask>
<g mask="url(#mask0_1_15)">
<mask id="mask1_1_15" style="mask-type:luminance" maskUnits="userSpaceOnUse" x="0" y="0" width="4" height="4">
<path d="M0.541988 0.541992H3.06573V3.08588H0.541988V0.541992Z" fill="white"/>
</mask>
<g mask="url(#mask1_1_15)">
<path d="M3.0478 2.01156C3.0353 2.00687 3.02122 2.01178 3.01436 2.02323C2.90378 2.20845 2.66431 2.26949 2.47857 2.1598C2.46686 2.15285 2.45183 2.15545 2.44315 2.16594C2.25203 2.39708 1.91133 2.43336 1.67584 2.24763C1.33705 1.98029 1.42283 1.44725 1.82435 1.2967C1.87828 1.38472 1.91969 1.47982 1.94739 1.57926C2.0121 1.79843 2.13105 1.84444 2.21944 1.84444C2.34598 1.8437 2.45568 1.7567 2.48523 1.63365C2.55612 1.66062 2.63573 1.65106 2.69821 1.60807C2.76069 1.56508 2.79808 1.49415 2.79822 1.4183C2.79831 1.38333 2.79037 1.34881 2.77504 1.31738C2.848 1.291 2.89664 1.22176 2.8967 1.14417C2.8967 1.05076 2.76355 0.899188 2.57292 0.775575C1.64079 0.171115 0.541975 0.818434 0.541975 1.81386C0.541334 2.01567 0.589291 2.21467 0.681791 2.39403C0.898781 2.81942 1.33638 3.08681 1.81391 3.0858C2.42852 3.08649 2.95548 2.6471 3.06529 2.04238C3.06767 2.02923 3.06031 2.01626 3.0478 2.01156ZM1.81392 0.59731C2.37915 0.59731 2.84147 1.01025 2.84147 1.14424C2.84148 1.20914 2.79317 1.2639 2.72878 1.27199C2.71907 1.27319 2.71071 1.27943 2.70681 1.2884C2.70291 1.29738 2.70404 1.30774 2.70978 1.31566C2.73147 1.34548 2.74312 1.38143 2.74303 1.4183C2.74289 1.48127 2.70903 1.53934 2.65428 1.57047C2.59954 1.60159 2.53232 1.601 2.47814 1.56892C2.46995 1.56403 2.45983 1.5637 2.45135 1.56805C2.44287 1.5724 2.43722 1.58081 2.43641 1.59031C2.42606 1.70252 2.33223 1.78854 2.21955 1.78914C2.1184 1.78914 2.04473 1.71325 2.00054 1.56359C1.96984 1.45336 1.92257 1.34843 1.86035 1.2524C1.85893 1.24907 1.85686 1.24605 1.85427 1.24352C1.79672 1.15662 1.71818 1.08564 1.6259 1.03718C1.6233 1.03531 1.6204 1.0339 1.61733 1.03303C1.53916 0.995788 1.45352 0.976906 1.36694 0.977827C1.11583 0.977827 0.8926 1.0746 0.740867 1.23863C0.952391 0.842827 1.36515 0.59614 1.81392 0.59731ZM0.630167 1.53207C0.731701 1.22894 1.02076 1.03313 1.36695 1.03313C1.41877 1.03283 1.47037 1.03991 1.52019 1.05416C1.13616 1.18152 0.954386 1.65429 1.08783 2.038C1.09024 2.04493 1.09531 2.05061 1.10191 2.0538C1.10851 2.05699 1.11612 2.05743 1.12304 2.05502C1.13747 2.05 1.14509 2.03424 1.14007 2.01982C1.00756 1.63885 1.2092 1.16715 1.60641 1.08844C1.67976 1.12736 1.74325 1.18254 1.79201 1.24976C1.36969 1.4192 1.27587 1.97617 1.62081 2.27365C1.50532 2.4227 1.32822 2.51101 1.13969 2.51359C0.946865 2.39185 0.838612 2.19912 0.80915 1.92444C0.807526 1.90926 0.793912 1.89827 0.778735 1.89988C0.763558 1.90151 0.752568 1.91512 0.754181 1.9303C0.781555 2.18534 0.873687 2.37459 1.03456 2.50596C0.921375 2.48797 0.815432 2.43883 0.72859 2.36404C0.641687 2.19372 0.596661 2.00513 0.597249 1.81392C0.597223 1.71901 0.608271 1.62442 0.630167 1.53207ZM1.81392 3.03058C1.40254 3.03151 1.01876 2.8237 0.794703 2.47868C1.08648 2.64702 1.45772 2.57422 1.66432 2.30816C1.91653 2.48849 2.26408 2.44994 2.47064 2.21872C2.6395 2.30661 2.84545 2.27815 2.98415 2.14777C2.8354 2.67063 2.35753 3.03113 1.81392 3.03058ZM2.34812 2.61155C2.35284 2.61716 2.35513 2.62443 2.35449 2.63173C2.35385 2.63904 2.35033 2.64579 2.34471 2.65051C2.19535 2.77589 1.97526 2.76761 1.83575 2.63134C1.75731 2.76258 1.60745 2.83354 1.45622 2.81107C1.44111 2.8089 1.43062 2.79489 1.43279 2.77977C1.43496 2.76466 1.44897 2.75417 1.46409 2.75634C1.60588 2.77737 1.74455 2.70239 1.80461 2.57224C1.80861 2.56364 1.81675 2.5577 1.82615 2.55649C1.83556 2.55529 1.84493 2.55899 1.85098 2.56629C1.90599 2.6329 1.98532 2.67479 2.07135 2.68265C2.15738 2.69051 2.24299 2.66369 2.30916 2.60816C2.31478 2.60344 2.32204 2.60115 2.32935 2.60178C2.33665 2.60242 2.34341 2.60593 2.34812 2.61155ZM1.64373 0.778921C1.64412 0.771582 1.64744 0.764707 1.65294 0.75983C1.65843 0.754954 1.66566 0.752483 1.67299 0.75297C1.99049 0.771925 2.17796 0.94018 2.27931 1.07799C2.28368 1.0839 2.28551 1.09131 2.2844 1.09857C2.2833 1.10583 2.27935 1.11236 2.27343 1.1167C2.26751 1.12106 2.26011 1.12289 2.25284 1.12178C2.24558 1.12068 2.23906 1.11672 2.23471 1.1108C2.14038 0.982527 1.96575 0.825899 1.66964 0.80823C1.66232 0.807782 1.65547 0.804442 1.65061 0.798944C1.64576 0.793447 1.64328 0.786244 1.64373 0.778921Z" fill="url(#paint0_linear_1_15)"/>
</g>
</g>
<defs>
<linearGradient id="paint0_linear_1_15" x1="0.541968" y1="0.541916" x2="3.08577" y2="3.0656" gradientUnits="userSpaceOnUse">
<stop stop-color="#64C6C4"/>
<stop offset="1" stop-color="#212245"/>
</linearGradient>
</defs>
</svg>
