<svg width="13" height="4" viewBox="0 0 13 4" fill="none" xmlns="http://www.w3.org/2000/svg">
<g clip-path="url(#clip0_1_16)">
<path d="M3.67273 1.66019C3.64473 1.66019 3.62198 1.65144 3.60448 1.63394C3.58698 1.61644 3.57823 1.59469 3.57823 1.56869V0.701691C3.57823 0.675691 3.58698 0.653941 3.60448 0.636441C3.62198 0.618941 3.64373 0.610191 3.66973 0.610191H4.15723C4.18323 0.610191 4.20498 0.618441 4.22248 0.634941C4.23998 0.651441 4.24873 0.672691 4.24873 0.698691C4.24873 0.720691 4.23998 0.740191 4.22248 0.757191C4.20498 0.774191 4.18323 0.782691 4.15723 0.782691H3.75223L3.76573 0.764691V1.06619L3.75523 1.04669H4.08973C4.11573 1.04669 4.13748 1.05494 4.15498 1.07144C4.17248 1.08794 4.18123 1.10919 4.18123 1.13519C4.18123 1.15719 4.17248 1.17669 4.15498 1.19369C4.13748 1.21069 4.11573 1.21919 4.08973 1.21919H3.75223L3.76573 1.20569V1.56869C3.76573 1.59469 3.75648 1.61644 3.73798 1.63394C3.71948 1.65144 3.69773 1.66019 3.67273 1.66019ZM5.16675 0.608691C5.19275 0.608691 5.21375 0.617441 5.22975 0.634941C5.24575 0.652441 5.25375 0.674191 5.25375 0.700191V1.24319C5.25375 1.32619 5.236 1.39969 5.2005 1.46369C5.165 1.52769 5.11625 1.57769 5.05425 1.61369C4.99225 1.64969 4.92025 1.66769 4.83825 1.66769C4.75625 1.66769 4.684 1.64969 4.6215 1.61369C4.559 1.57769 4.51 1.52769 4.4745 1.46369C4.439 1.39969 4.42125 1.32619 4.42125 1.24319V0.700191C4.42125 0.674191 4.43025 0.652441 4.44825 0.634941C4.46625 0.617441 4.48925 0.608691 4.51725 0.608691C4.54025 0.608691 4.561 0.617441 4.5795 0.634941C4.598 0.652441 4.60725 0.674191 4.60725 0.700191V1.24319C4.60725 1.29319 4.618 1.33644 4.6395 1.37294C4.661 1.40944 4.6895 1.43769 4.725 1.45769C4.7605 1.47769 4.79825 1.48769 4.83825 1.48769C4.88125 1.48769 4.92125 1.47769 4.95825 1.45769C4.99525 1.43769 5.02525 1.40944 5.04825 1.37294C5.07125 1.33644 5.08275 1.29319 5.08275 1.24319V0.700191C5.08275 0.674191 5.09025 0.652441 5.10525 0.634941C5.12025 0.617441 5.14075 0.608691 5.16675 0.608691ZM6.05777 1.48469C6.08377 1.48469 6.10552 1.49294 6.12302 1.50944C6.14052 1.52594 6.14927 1.54719 6.14927 1.57319C6.14927 1.59819 6.14052 1.61894 6.12302 1.63544C6.10552 1.65194 6.08377 1.66019 6.05777 1.66019H5.57027C5.54427 1.66019 5.52252 1.65144 5.50502 1.63394C5.48752 1.61644 5.47877 1.59469 5.47877 1.56869V0.701691C5.47877 0.675691 5.48777 0.653941 5.50577 0.636441C5.52377 0.618941 5.54677 0.610191 5.57477 0.610191C5.59877 0.610191 5.62002 0.618941 5.63852 0.636441C5.65702 0.653941 5.66627 0.675691 5.66627 0.701691V1.51019L5.63327 1.48469H6.05777ZM6.90079 1.48469C6.92679 1.48469 6.94854 1.49294 6.96604 1.50944C6.98354 1.52594 6.99229 1.54719 6.99229 1.57319C6.99229 1.59819 6.98354 1.61894 6.96604 1.63544C6.94854 1.65194 6.92679 1.66019 6.90079 1.66019H6.41329C6.38729 1.66019 6.36554 1.65144 6.34804 1.63394C6.33054 1.61644 6.32179 1.59469 6.32179 1.56869V0.701691C6.32179 0.675691 6.33079 0.653941 6.34879 0.636441C6.36679 0.618941 6.38979 0.610191 6.41779 0.610191C6.44179 0.610191 6.46304 0.618941 6.48154 0.636441C6.50004 0.653941 6.50929 0.675691 6.50929 0.701691V1.51019L6.47629 1.48469H6.90079ZM8.30027 0.605691C8.32327 0.605691 8.34527 0.614441 8.36627 0.631941C8.38727 0.649441 8.39777 0.673191 8.39777 0.703191C8.39777 0.712191 8.39627 0.722191 8.39327 0.733191L8.09776 1.60319C8.09176 1.62119 8.08102 1.63494 8.06552 1.64444C8.05002 1.65394 8.03377 1.65919 8.01677 1.66019C7.99977 1.66019 7.98302 1.65519 7.96652 1.64519C7.95002 1.63519 7.93727 1.62069 7.92827 1.60169L7.70626 1.09769L7.71977 1.10669L7.50077 1.60169C7.49177 1.62069 7.47902 1.63519 7.46252 1.64519C7.44602 1.65519 7.42927 1.66019 7.41227 1.66019C7.39627 1.65919 7.38027 1.65394 7.36427 1.64444C7.34827 1.63494 7.33727 1.62119 7.33127 1.60319L7.03577 0.733191C7.03277 0.722191 7.03127 0.712191 7.03127 0.703191C7.03127 0.673191 7.04202 0.649441 7.06352 0.631941C7.08502 0.614441 7.10727 0.605691 7.13027 0.605691C7.14927 0.605691 7.16702 0.610691 7.18352 0.620691C7.20002 0.630691 7.21127 0.645191 7.21727 0.664191L7.45577 1.38719L7.42277 1.38569L7.63577 0.874191C7.64377 0.856191 7.65527 0.841941 7.67027 0.831441C7.68527 0.820941 7.70227 0.816191 7.72127 0.817191C7.74027 0.816191 7.75726 0.820941 7.77226 0.831441C7.78726 0.841941 7.79826 0.856191 7.80526 0.874191L8.00027 1.36319L7.97626 1.37819L8.21177 0.664191C8.21777 0.645191 8.22926 0.630691 8.24626 0.620691C8.26326 0.610691 8.28127 0.605691 8.30027 0.605691ZM8.8868 0.845691L8.5628 1.60769C8.5558 1.62669 8.54505 1.64144 8.53055 1.65194C8.51605 1.66244 8.5003 1.66769 8.4833 1.66769C8.4563 1.66769 8.4363 1.66019 8.4233 1.64519C8.4103 1.63019 8.4038 1.61169 8.4038 1.58969C8.4038 1.58069 8.4053 1.57119 8.4083 1.56119L8.7818 0.664191C8.7898 0.644191 8.80205 0.628691 8.81855 0.617691C8.83505 0.606691 8.8528 0.602191 8.8718 0.604191C8.8898 0.604191 8.90655 0.609441 8.92205 0.619941C8.93755 0.630441 8.9488 0.645191 8.9558 0.664191L9.3248 1.54319C9.3298 1.55619 9.3323 1.56819 9.3323 1.57919C9.3323 1.60619 9.32355 1.62769 9.30605 1.64369C9.28855 1.65969 9.2693 1.66769 9.2483 1.66769C9.2303 1.66769 9.21405 1.66219 9.19955 1.65119C9.18505 1.64019 9.1738 1.62519 9.1658 1.60619L8.8433 0.854691L8.8868 0.845691ZM8.6093 1.42469L8.6918 1.25219H9.0968L9.1253 1.42469H8.6093ZM10.0883 0.607191C10.1133 0.607191 10.135 0.615441 10.1535 0.631941C10.172 0.648441 10.1813 0.669191 10.1813 0.694191C10.1813 0.707191 10.1783 0.720691 10.1723 0.734691L9.80179 1.60169C9.79279 1.62169 9.78004 1.63644 9.76354 1.64594C9.74704 1.65544 9.73029 1.66019 9.71329 1.66019C9.69729 1.65919 9.68179 1.65394 9.66679 1.64444C9.65179 1.63494 9.64029 1.62119 9.63229 1.60319L9.26179 0.733191C9.25879 0.727191 9.25679 0.720941 9.25579 0.714441C9.25479 0.707941 9.25429 0.701691 9.25429 0.695691C9.25429 0.666691 9.26479 0.644441 9.28579 0.628941C9.30679 0.613441 9.32679 0.605691 9.34579 0.605691C9.38379 0.605691 9.41129 0.625191 9.42829 0.664191L9.75679 1.43669L9.70429 1.43819L10.0058 0.664191C10.0228 0.626191 10.0503 0.607191 10.0883 0.607191ZM10.4303 0.610191H10.9328C10.9588 0.610191 10.9805 0.618441 10.998 0.634941C11.0155 0.651441 11.0243 0.672691 11.0243 0.698691C11.0243 0.723691 11.0155 0.743941 10.998 0.759441C10.9805 0.774941 10.9588 0.782691 10.9328 0.782691H10.5128L10.5263 0.757191V1.04969L10.5143 1.03769H10.8653C10.8913 1.03769 10.913 1.04594 10.9305 1.06244C10.948 1.07894 10.9568 1.10019 10.9568 1.12619C10.9568 1.15119 10.948 1.17144 10.9305 1.18694C10.913 1.20244 10.8913 1.21019 10.8653 1.21019H10.5188L10.5263 1.19819V1.50119L10.5143 1.48769H10.9328C10.9588 1.48769 10.9805 1.49644 10.998 1.51394C11.0155 1.53144 11.0243 1.55169 11.0243 1.57469C11.0243 1.59969 11.0155 1.62019 10.998 1.63619C10.9805 1.65219 10.9588 1.66019 10.9328 1.66019H10.4303C10.4043 1.66019 10.3825 1.65144 10.365 1.63394C10.3475 1.61644 10.3388 1.59469 10.3388 1.56869V0.701691C10.3388 0.675691 10.3475 0.653941 10.365 0.636441C10.3825 0.618941 10.4043 0.610191 10.4303 0.610191ZM3.66973 1.97669H4.17223C4.19823 1.97669 4.21998 1.98494 4.23748 2.00144C4.25498 2.01794 4.26373 2.03919 4.26373 2.06519C4.26373 2.09019 4.25498 2.11044 4.23748 2.12594C4.21998 2.14144 4.19823 2.14919 4.17223 2.14919H3.75223L3.76573 2.12369V2.41619L3.75373 2.40419H4.10473C4.13073 2.40419 4.15248 2.41244 4.16998 2.42894C4.18748 2.44544 4.19623 2.46669 4.19623 2.49269C4.19623 2.51769 4.18748 2.53794 4.16998 2.55344C4.15248 2.56894 4.13073 2.57669 4.10473 2.57669H3.75823L3.76573 2.56469V2.86769L3.75373 2.85419H4.17223C4.19823 2.85419 4.21998 2.86294 4.23748 2.88044C4.25498 2.89794 4.26373 2.91819 4.26373 2.94119C4.26373 2.96619 4.25498 2.98669 4.23748 3.00269C4.21998 3.01869 4.19823 3.02669 4.17223 3.02669H3.66973C3.64373 3.02669 3.62198 3.01794 3.60448 3.00044C3.58698 2.98294 3.57823 2.96119 3.57823 2.93519V2.06819C3.57823 2.04219 3.58698 2.02044 3.60448 2.00294C3.62198 1.98544 3.64373 1.97669 3.66973 1.97669ZM5.01526 2.85119C5.04126 2.85119 5.06301 2.85944 5.08051 2.87594C5.09801 2.89244 5.10676 2.91369 5.10676 2.93969C5.10676 2.96469 5.09801 2.98544 5.08051 3.00194C5.06301 3.01844 5.04126 3.02669 5.01526 3.02669H4.52776C4.50176 3.02669 4.48001 3.01794 4.46251 3.00044C4.44501 2.98294 4.43626 2.96119 4.43626 2.93519V2.06819C4.43626 2.04219 4.44526 2.02044 4.46326 2.00294C4.48126 1.98544 4.50426 1.97669 4.53226 1.97669C4.55626 1.97669 4.57751 1.98544 4.59601 2.00294C4.61451 2.02044 4.62376 2.04219 4.62376 2.06819V2.87669L4.59076 2.85119H5.01526ZM5.37078 1.97669H5.87328C5.89928 1.97669 5.92103 1.98494 5.93853 2.00144C5.95603 2.01794 5.96478 2.03919 5.96478 2.06519C5.96478 2.09019 5.95603 2.11044 5.93853 2.12594C5.92103 2.14144 5.89928 2.14919 5.87328 2.14919H5.45328L5.46678 2.12369V2.41619L5.45478 2.40419H5.80578C5.83178 2.40419 5.85353 2.41244 5.87103 2.42894C5.88853 2.44544 5.89728 2.46669 5.89728 2.49269C5.89728 2.51769 5.88853 2.53794 5.87103 2.55344C5.85353 2.56894 5.83178 2.57669 5.80578 2.57669H5.45928L5.46678 2.56469V2.86769L5.45478 2.85419H5.87328C5.89928 2.85419 5.92103 2.86294 5.93853 2.88044C5.95603 2.89794 5.96478 2.91819 5.96478 2.94119C5.96478 2.96619 5.95603 2.98669 5.93853 3.00269C5.92103 3.01869 5.89928 3.02669 5.87328 3.02669H5.37078C5.34478 3.02669 5.32303 3.01794 5.30553 3.00044C5.28803 2.98294 5.27928 2.96119 5.27928 2.93519V2.06819C5.27928 2.04219 5.28803 2.02044 5.30553 2.00294C5.32303 1.98544 5.34478 1.97669 5.37078 1.97669ZM6.87231 2.02769C6.89831 2.04069 6.91356 2.06119 6.91806 2.08919C6.92256 2.11719 6.91531 2.14269 6.89631 2.16569C6.88331 2.18369 6.86656 2.19369 6.84606 2.19569C6.82556 2.19769 6.80481 2.19369 6.78381 2.18369C6.75981 2.17269 6.73456 2.16419 6.70806 2.15819C6.68156 2.15219 6.65381 2.14919 6.62481 2.14919C6.57081 2.14919 6.52256 2.15769 6.48006 2.17469C6.43756 2.19169 6.40131 2.21594 6.37131 2.24744C6.34131 2.27894 6.31856 2.31619 6.30306 2.35919C6.28756 2.40219 6.27981 2.44969 6.27981 2.50169C6.27981 2.56269 6.28856 2.61569 6.30606 2.66069C6.32356 2.70569 6.34781 2.74319 6.37881 2.77319C6.40981 2.80319 6.44631 2.82544 6.48831 2.83994C6.53031 2.85444 6.57581 2.86169 6.62481 2.86169C6.65181 2.86169 6.67881 2.85919 6.70581 2.85419C6.73281 2.84919 6.75881 2.84019 6.78381 2.82719C6.80481 2.81719 6.82556 2.81369 6.84606 2.81669C6.86656 2.81969 6.88381 2.83019 6.89781 2.84819C6.91781 2.87319 6.92506 2.89894 6.91956 2.92544C6.91406 2.95194 6.89881 2.97119 6.87381 2.98319C6.84781 2.99619 6.82106 3.00694 6.79356 3.01544C6.76606 3.02394 6.73831 3.03044 6.71031 3.03494C6.68231 3.03944 6.65381 3.04169 6.62481 3.04169C6.55281 3.04169 6.48456 3.03019 6.42006 3.00719C6.35556 2.98419 6.29806 2.95019 6.24756 2.90519C6.19706 2.86019 6.15731 2.80394 6.12831 2.73644C6.09931 2.66894 6.08481 2.59069 6.08481 2.50169C6.08481 2.42469 6.09806 2.35369 6.12456 2.28869C6.15106 2.22369 6.18856 2.16744 6.23706 2.11994C6.28556 2.07244 6.34281 2.03544 6.40881 2.00894C6.47481 1.98244 6.54681 1.96919 6.62481 1.96919C6.66881 1.96919 6.71181 1.97419 6.75381 1.98419C6.79581 1.99419 6.83531 2.00869 6.87231 2.02769ZM7.43333 3.02669C7.40533 3.02669 7.38233 3.01794 7.36433 3.00044C7.34633 2.98294 7.33733 2.96119 7.33733 2.93519V2.06519H7.53233V2.93519C7.53233 2.96119 7.52308 2.98294 7.50458 3.00044C7.48608 3.01794 7.46233 3.02669 7.43333 3.02669ZM7.10183 2.14919C7.07583 2.14919 7.05408 2.14119 7.03658 2.12519C7.01908 2.10919 7.01033 2.08819 7.01033 2.06219C7.01033 2.03619 7.01908 2.01544 7.03658 1.99994C7.05408 1.98444 7.07583 1.97669 7.10183 1.97669H7.76783C7.79383 1.97669 7.81558 1.98469 7.83308 2.00069C7.85058 2.01669 7.85933 2.03769 7.85933 2.06369C7.85933 2.08969 7.85058 2.11044 7.83308 2.12594C7.81558 2.14144 7.79383 2.14919 7.76783 2.14919H7.10183ZM8.1248 3.02669C8.0968 3.02669 8.0718 3.01794 8.0498 3.00044C8.0278 2.98294 8.0168 2.96119 8.0168 2.93519V2.06819C8.0168 2.04219 8.02555 2.02044 8.04305 2.00294C8.06055 1.98544 8.0823 1.97669 8.1083 1.97669H8.5403C8.5923 1.97669 8.64105 1.99044 8.68655 2.01794C8.73205 2.04544 8.7688 2.08344 8.7968 2.13194C8.8248 2.18044 8.8388 2.23619 8.8388 2.29919C8.8388 2.33719 8.83105 2.37419 8.81555 2.41019C8.80005 2.44619 8.77905 2.47869 8.75255 2.50769C8.72605 2.53669 8.6963 2.55919 8.6633 2.57519L8.6648 2.54069C8.6928 2.55569 8.71605 2.57344 8.73455 2.59394C8.75305 2.61444 8.76755 2.63644 8.77805 2.65994C8.78855 2.68344 8.7948 2.70869 8.7968 2.73569C8.8008 2.76069 8.80355 2.78269 8.80505 2.80169C8.80655 2.82069 8.80955 2.83669 8.81405 2.84969C8.81855 2.86269 8.8273 2.87269 8.8403 2.87969C8.8623 2.89269 8.87605 2.91144 8.88155 2.93594C8.88705 2.96044 8.8813 2.98219 8.8643 3.00119C8.8533 3.01419 8.8393 3.02244 8.8223 3.02594C8.8053 3.02944 8.7883 3.02944 8.7713 3.02594C8.7543 3.02244 8.7403 3.01769 8.7293 3.01169C8.7123 3.00169 8.6953 2.98694 8.6783 2.96744C8.6613 2.94794 8.64755 2.92169 8.63705 2.88869C8.62655 2.85569 8.6213 2.81319 8.6213 2.76119C8.6213 2.74419 8.6183 2.72844 8.6123 2.71394C8.6063 2.69944 8.5978 2.68694 8.5868 2.67644C8.5758 2.66594 8.5618 2.65794 8.5448 2.65244C8.5278 2.64694 8.5078 2.64419 8.4848 2.64419H8.1818L8.2043 2.60969V2.93519C8.2043 2.96119 8.1973 2.98294 8.1833 3.00044C8.1693 3.01794 8.1498 3.02669 8.1248 3.02669ZM8.1833 2.48969H8.5328C8.5508 2.48969 8.5683 2.48144 8.5853 2.46494C8.6023 2.44844 8.6163 2.42594 8.6273 2.39744C8.6383 2.36894 8.6438 2.33769 8.6438 2.30369C8.6438 2.25969 8.63205 2.22294 8.60855 2.19344C8.58505 2.16394 8.5598 2.14919 8.5328 2.14919H8.1863L8.2043 2.10119V2.52569L8.1833 2.48969ZM9.23482 2.93519C9.23482 2.96119 9.22532 2.98294 9.20632 3.00044C9.18732 3.01794 9.16532 3.02669 9.14032 3.02669C9.11232 3.02669 9.08982 3.01794 9.07282 3.00044C9.05582 2.98294 9.04732 2.96119 9.04732 2.93519V2.06819C9.04732 2.04219 9.05632 2.02044 9.07432 2.00294C9.09232 1.98544 9.11532 1.97669 9.14332 1.97669C9.16732 1.97669 9.18857 1.98544 9.20707 2.00294C9.22557 2.02044 9.23482 2.04219 9.23482 2.06819V2.93519ZM10.1949 2.02769C10.2209 2.04069 10.2361 2.06119 10.2406 2.08919C10.2451 2.11719 10.2379 2.14269 10.2189 2.16569C10.2059 2.18369 10.1891 2.19369 10.1686 2.19569C10.1481 2.19769 10.1274 2.19369 10.1064 2.18369C10.0824 2.17269 10.0571 2.16419 10.0306 2.15819C10.0041 2.15219 9.97635 2.14919 9.94735 2.14919C9.89335 2.14919 9.8451 2.15769 9.8026 2.17469C9.7601 2.19169 9.72385 2.21594 9.69385 2.24744C9.66385 2.27894 9.6411 2.31619 9.6256 2.35919C9.6101 2.40219 9.60235 2.44969 9.60235 2.50169C9.60235 2.56269 9.6111 2.61569 9.6286 2.66069C9.6461 2.70569 9.67035 2.74319 9.70135 2.77319C9.73235 2.80319 9.76885 2.82544 9.81085 2.83994C9.85285 2.85444 9.89835 2.86169 9.94735 2.86169C9.97435 2.86169 10.0014 2.85919 10.0284 2.85419C10.0554 2.84919 10.0814 2.84019 10.1064 2.82719C10.1274 2.81719 10.1481 2.81369 10.1686 2.81669C10.1891 2.81969 10.2064 2.83019 10.2204 2.84819C10.2404 2.87319 10.2476 2.89894 10.2421 2.92544C10.2366 2.95194 10.2214 2.97119 10.1964 2.98319C10.1704 2.99619 10.1436 3.00694 10.1161 3.01544C10.0886 3.02394 10.0609 3.03044 10.0329 3.03494C10.0049 3.03944 9.97635 3.04169 9.94735 3.04169C9.87535 3.04169 9.8071 3.03019 9.7426 3.00719C9.6781 2.98419 9.6206 2.95019 9.5701 2.90519C9.5196 2.86019 9.47985 2.80394 9.45085 2.73644C9.42185 2.66894 9.40735 2.59069 9.40735 2.50169C9.40735 2.42469 9.4206 2.35369 9.4471 2.28869C9.4736 2.22369 9.5111 2.16744 9.5596 2.11994C9.6081 2.07244 9.66535 2.03544 9.73135 2.00894C9.79735 1.98244 9.86935 1.96919 9.94735 1.96919C9.99135 1.96919 10.0344 1.97419 10.0764 1.98419C10.1184 1.99419 10.1579 2.00869 10.1949 2.02769ZM10.7859 2.21219L10.4619 2.97419C10.4549 2.99319 10.4441 3.00794 10.4296 3.01844C10.4151 3.02894 10.3994 3.03419 10.3824 3.03419C10.3554 3.03419 10.3354 3.02669 10.3224 3.01169C10.3094 2.99669 10.3029 2.97819 10.3029 2.95619C10.3029 2.94719 10.3044 2.93769 10.3074 2.92769L10.6809 2.03069C10.6889 2.01069 10.7011 1.99519 10.7176 1.98419C10.7341 1.97319 10.7519 1.96869 10.7709 1.97069C10.7889 1.97069 10.8056 1.97594 10.8211 1.98644C10.8366 1.99694 10.8479 2.01169 10.8549 2.03069L11.2239 2.90969C11.2289 2.92269 11.2314 2.93469 11.2314 2.94569C11.2314 2.97269 11.2226 2.99419 11.2051 3.01019C11.1876 3.02619 11.1684 3.03419 11.1474 3.03419C11.1294 3.03419 11.1131 3.02869 11.0986 3.01769C11.0841 3.00669 11.0729 2.99169 11.0649 2.97269L10.7424 2.22119L10.7859 2.21219ZM10.5084 2.79119L10.5909 2.61869H10.9959L11.0244 2.79119H10.5084ZM11.9378 2.85119C11.9638 2.85119 11.9856 2.85944 12.0031 2.87594C12.0206 2.89244 12.0293 2.91369 12.0293 2.93969C12.0293 2.96469 12.0206 2.98544 12.0031 3.00194C11.9856 3.01844 11.9638 3.02669 11.9378 3.02669H11.4503C11.4243 3.02669 11.4026 3.01794 11.3851 3.00044C11.3676 2.98294 11.3588 2.96119 11.3588 2.93519V2.06819C11.3588 2.04219 11.3678 2.02044 11.3858 2.00294C11.4038 1.98544 11.4268 1.97669 11.4548 1.97669C11.4788 1.97669 11.5001 1.98544 11.5186 2.00294C11.5371 2.02044 11.5463 2.04219 11.5463 2.06819V2.87669L11.5133 2.85119H11.9378Z" fill="white"/>
<mask id="mask0_1_16" style="mask-type:luminance" maskUnits="userSpaceOnUse" x="0" y="0" width="4" height="4">
<path d="M0.541988 0.541992H3.06573V3.08588H0.541988V0.541992Z" fill="white"/>
</mask>
<g mask="url(#mask0_1_16)">
<mask id="mask1_1_16" style="mask-type:luminance" maskUnits="userSpaceOnUse" x="0" y="0" width="4" height="4">
<path d="M0.541988 0.541992H3.06573V3.08588H0.541988V0.541992Z" fill="white"/>
</mask>
<g mask="url(#mask1_1_16)">
<path d="M3.0478 2.01156C3.0353 2.00687 3.02122 2.01178 3.01436 2.02323C2.90378 2.20845 2.66431 2.26949 2.47857 2.1598C2.46686 2.15285 2.45183 2.15545 2.44315 2.16594C2.25203 2.39708 1.91133 2.43336 1.67584 2.24763C1.33705 1.98029 1.42283 1.44725 1.82435 1.2967C1.87828 1.38472 1.91969 1.47982 1.94739 1.57926C2.0121 1.79843 2.13105 1.84444 2.21944 1.84444C2.34598 1.8437 2.45568 1.7567 2.48523 1.63365C2.55612 1.66062 2.63573 1.65106 2.69821 1.60807C2.76069 1.56508 2.79808 1.49415 2.79822 1.4183C2.79831 1.38333 2.79038 1.34881 2.77504 1.31738C2.848 1.291 2.89664 1.22176 2.8967 1.14417C2.8967 1.05076 2.76355 0.899188 2.57292 0.775575C1.64079 0.171115 0.541975 0.818434 0.541975 1.81386C0.541334 2.01567 0.589291 2.21467 0.681791 2.39403C0.898781 2.81942 1.33638 3.08681 1.81391 3.0858C2.42852 3.08649 2.95548 2.6471 3.06529 2.04238C3.06767 2.02923 3.06031 2.01626 3.0478 2.01156ZM1.81392 0.59731C2.37915 0.59731 2.84147 1.01025 2.84147 1.14424C2.84148 1.20914 2.79317 1.2639 2.72878 1.27199C2.71907 1.27319 2.71071 1.27943 2.70681 1.2884C2.70291 1.29738 2.70404 1.30774 2.70978 1.31566C2.73147 1.34548 2.74312 1.38143 2.74303 1.4183C2.74289 1.48127 2.70903 1.53934 2.65428 1.57047C2.59954 1.60159 2.53232 1.601 2.47814 1.56892C2.46995 1.56403 2.45983 1.5637 2.45135 1.56805C2.44287 1.5724 2.43722 1.58081 2.43641 1.59031C2.42606 1.70251 2.33223 1.78854 2.21955 1.78914C2.1184 1.78914 2.04473 1.71325 2.00054 1.56359C1.96984 1.45336 1.92257 1.34843 1.86035 1.2524C1.85893 1.24907 1.85686 1.24605 1.85427 1.24352C1.79672 1.15662 1.71818 1.08564 1.6259 1.03718C1.6233 1.03531 1.6204 1.0339 1.61733 1.03303C1.53916 0.995788 1.45352 0.976906 1.36694 0.977827C1.11583 0.977827 0.8926 1.0746 0.740867 1.23863C0.952391 0.842827 1.36515 0.59614 1.81392 0.59731ZM0.630167 1.53207C0.731701 1.22894 1.02076 1.03313 1.36695 1.03313C1.41877 1.03283 1.47037 1.03991 1.52019 1.05416C1.13616 1.18152 0.954386 1.65429 1.08783 2.038C1.09024 2.04493 1.09531 2.05061 1.10191 2.0538C1.10851 2.05699 1.11612 2.05743 1.12304 2.05502C1.13747 2.05 1.14509 2.03424 1.14007 2.01982C1.00756 1.63885 1.2092 1.16715 1.60641 1.08844C1.67976 1.12736 1.74325 1.18254 1.79201 1.24976C1.36969 1.4192 1.27587 1.97617 1.62081 2.27365C1.50532 2.4227 1.32822 2.51101 1.13969 2.51359C0.946865 2.39185 0.838612 2.19912 0.80915 1.92444C0.807526 1.90926 0.793912 1.89827 0.778735 1.89988C0.763558 1.90151 0.752568 1.91512 0.754181 1.9303C0.781555 2.18534 0.873687 2.37459 1.03456 2.50596C0.921375 2.48797 0.815432 2.43883 0.72859 2.36404C0.641687 2.19372 0.596661 2.00513 0.597249 1.81392C0.597223 1.71901 0.608271 1.62442 0.630167 1.53207ZM1.81392 3.03058C1.40254 3.03151 1.01876 2.8237 0.794703 2.47868C1.08648 2.64702 1.45772 2.57422 1.66432 2.30816C1.91653 2.48849 2.26408 2.44994 2.47064 2.21872C2.6395 2.30661 2.84545 2.27815 2.98415 2.14777C2.8354 2.67063 2.35753 3.03113 1.81392 3.03058ZM2.34812 2.61155C2.35284 2.61716 2.35513 2.62443 2.35449 2.63173C2.35385 2.63904 2.35033 2.64579 2.34471 2.65051C2.19535 2.77589 1.97526 2.76761 1.83575 2.63134C1.75731 2.76258 1.60745 2.83354 1.45622 2.81107C1.44111 2.8089 1.43062 2.79489 1.43279 2.77977C1.43496 2.76466 1.44897 2.75417 1.46409 2.75634C1.60588 2.77737 1.74455 2.70239 1.80461 2.57224C1.80861 2.56364 1.81675 2.5577 1.82615 2.55649C1.83556 2.55529 1.84493 2.55899 1.85098 2.56629C1.90599 2.6329 1.98532 2.67479 2.07135 2.68265C2.15738 2.69051 2.24299 2.66369 2.30916 2.60816C2.31478 2.60344 2.32204 2.60115 2.32935 2.60178C2.33665 2.60242 2.34341 2.60593 2.34812 2.61155ZM1.64373 0.778921C1.64412 0.771582 1.64744 0.764707 1.65294 0.75983C1.65843 0.754954 1.66566 0.752483 1.67299 0.75297C1.99049 0.771925 2.17796 0.94018 2.27931 1.07799C2.28368 1.0839 2.28551 1.09131 2.2844 1.09857C2.2833 1.10583 2.27935 1.11236 2.27343 1.1167C2.26751 1.12106 2.26011 1.12289 2.25284 1.12178C2.24558 1.12068 2.23906 1.11672 2.23471 1.1108C2.14038 0.982527 1.96576 0.825899 1.66964 0.80823C1.66232 0.807782 1.65547 0.804442 1.65061 0.798944C1.64576 0.793447 1.64328 0.786244 1.64373 0.778921Z" fill="#64C6C4"/>
</g>
</g>
</g>
<defs>
<clipPath id="clip0_1_16">
<rect width="12.6313" height="3.62786" fill="white"/>
</clipPath>
</defs>
</svg>
