<svg width="418" height="650" viewBox="0 0 418 650" fill="none" xmlns="http://www.w3.org/2000/svg">
<path d="M177.1 204.4L178.7 203.5L179 203.7L179.8 204.7L180.4 205.9L179.8 206.3L178.8 206.6L178.1 207.4L178 208.2L178.5 210L178.6 210.9L178.4 211.5L178.1 211.7L177.2 211.6L176.6 211.7L175.2 212.2L173.7 212.4L172.2 212.1L169.3 211L169.9 210.4L168.3 208.9L167.6 208.7L166.7 209.5L166 209.8L165.8 208.7L165.9 207.2L166.5 206.2H167H170.6L171.4 206.6L171.9 207.5L172.7 208L174 207.1L177.1 204.4ZM154.8 173.6L155.8 173L156.9 173.5L157.8 174.5L158.2 175.7L158.7 177.8L158.6 178.7L157.5 179H155L154.3 178.6L155.3 177.8L155.4 176.9L154.7 174.7L154.8 173.6ZM174.7 154.8L175 155.3L175.6 156L176.1 156.9V158L175.5 158.8L174.4 159.2L173.2 159.3H172.3L170.9 157.4L171.9 155.7L173.7 154.7L174.7 154.8ZM203.2 164.1L204.6 166L205.1 166.5L203.8 169.4L203.1 170.1L202.1 170.2L201.6 169.5L201.3 168.5V167.4L200.9 166.4L200 166.7L198.9 167.3L198.2 167.4L197.8 166.5L197.6 164.2L197.4 163.5L196.8 163L196.2 163.1L194.5 163.5L194.8 162.7V162.2L194.5 161.7L194 161L192.4 161.6L190.4 160.7L188.8 158.9L188.3 156.9L190.1 159.1L190.6 159.3L191.3 158.6V157.5L191.1 156.3L191.4 155.4L192 153.8L191 153.1L189.6 152.4L188.8 150.9H190.9L191.8 150.6L192.6 149.7L191.2 148.2L190.9 146.5L191.7 145.1L193.5 144.9L194.2 145.1L194.9 145.7L195.3 146.5L195.5 147.6L195.8 148.1L197.9 149.7L196.5 150.4L196.7 151.4L197.7 152.4L199.5 153.6L201.3 154.3L202 154.5L202.7 154.8L202.3 155.6L201.6 156.5L201.3 157.2L201 158.5L200.6 159.4V160.5L201.5 162L201.8 162.3L202.2 162.6L202.6 162.8H203L203.2 163V163.3L203.1 163.7L203.2 164.1ZM142.1 253.2L140.6 249.6L139.9 246.7L138.2 243.6L137.9 242.8L137.5 240.9L134.5 235.2L134 232.7L135.2 232.6L137.2 233.1L140 232.2L141 232.6L141.7 233.3L141.6 234.3L140.9 235.2L140.8 235.8L144.3 242.8L144.6 245.6L145.6 247.8L146.9 248.8L147.6 246.7L146.7 244.5L146.6 243.1L147.4 242.5L149.5 242.9L150.4 242.8L151.4 241.9L150 242L146.5 241.3L145.2 240.7L146.3 240.2L150.1 236.8L150.6 237L150.5 238.9L153.4 235.4L155 234.1L156.8 233.9L159.5 237.1L160.4 237.6L161.4 237.2L161.6 236.2L161.2 235L160.6 233.9L160.8 233L157.2 231.5L155.8 230.4L154.7 230.8L154 229.6L153.6 227.9L152.9 226.6L151.1 228.8L150.1 227.9L149.9 226L150.8 224.9L151.6 224.6L152.4 224L153.1 223.1L153.4 222.1L148.8 221.3L144.1 221.6L141.7 222.3L139.9 223.7L139.3 224.8L138.8 226.9L138.5 227.9L137.8 228.8L137.2 228.9L135.5 227.3L134.5 228.9L133 230.2L131.4 230.8L129.9 230L129.1 228.5L126.3 218.4L124.7 210.1L123.4 206.2L119.7 199.4L110 187.1L107.9 183.1L107.5 179L107.7 178L108 177.2L108.5 176.7L109.4 176.6L108.6 179V180.2L108.9 181.5L110.1 179.1L110.8 178.2L111.8 177.8L112.8 178.5L113.8 181.4L115.2 182.7L116.8 185.6L117.8 186.3L119 186.6L119.7 187.4V188.4L118.6 189.3L121.4 190.4L122.2 190.5L122.3 190.7L121.6 191.1L120.5 191.6L119.5 191.7L120.2 192.2L120.5 192.9L120.4 193.8L120 194.7L120.9 194.8L121.5 195L123 195.9L122.9 195.3L123 194.1V193.5L123.7 194.7L124.4 196.7L125.1 197.7L125.8 195.9L126.6 196L126.8 195L127 193.6L127.3 192.3L127.8 191.7L128.9 190.7L129.3 189.9L128.2 190.3L127.8 190.5L127.2 188.8L127.8 184.8L127.3 183.8L126.7 185.1L126.4 184.5V179.9L126.3 179.6L126.6 179.2L127.8 177.8L127.2 176.9L126.4 175.9L125.8 174.9L126.1 173.9L127.6 172.5L127.5 172L125.3 170.6L124.8 170.7L123.7 172.2L122.8 173L122.1 173.4L118 173.7L115.8 173.2L114.2 171.7L113.7 168.9L114.7 169.5L115.3 167.4L116 167.2L117 167.8L118.1 168.3L121.1 168L122.5 167.6L123.7 166.8L124.8 165.6L125.7 165L127.8 164.1L129.7 162.3L130.4 162L131 161.9L131.4 161.6L131.7 160.5L131.3 160.1L131.1 160L131 159.9L130.7 159.3L132.8 157.8L139.7 151.8L140.9 151L141.8 152.1L145.8 158.2L148.1 160.8L151 162.8L152.8 163.6L152.9 164.1L152.4 165.3L152.5 165.5L152.7 165.6L152.9 165.8L152.7 166.2L152.4 166.3L152.2 166.2L152 166V165.9L151.6 166.2L151.3 166L151.1 166.1L151 167.1L151.5 168.7L153.1 169.3L155.1 169.6L156.8 170.1L154.6 170.5L148.8 170.2L147.6 170.4L147.8 171.6L148.8 175.2L149.9 177.6L150.1 179.1L149.9 180.6L149.6 182L148.2 177.9L147 176.1L145.2 175.4L146.5 179.3L146.3 180.7L144.7 180.8V181.5L145.4 181.7L146 182.1L146.6 182.6L147.1 183.2L146.6 184.1L145.1 185.1L144.7 185.7V186.8L145.5 188.4L145.7 189.6L145.6 191.4L146 191.6L146.9 192.6L147.6 193.1L148.6 193.3L150.5 193.5L153.5 192.3H154.4L155.1 192.9L154.8 193.4L151.5 195.3L149.8 195.9L148.6 195.8L145.7 194.7L147.1 196.2L148.2 198.4L152.4 211.6L150.9 211.2L150 210.4L149 210L147.1 211L146.5 210.6L146.3 210V209.4L146.6 208.6L145.3 208.3L144.3 205.9H143.3L140.8 207.2L139.6 207.9L138.5 209.2V209.8L139.1 209.9L141.6 209.5L142.8 209.8L142.1 210.5L141.1 211.1L140.5 211.8L140.8 212.5L142 213.2L142.3 213.5L142.2 214.1L142.3 217.8L142.6 219L143.5 219.5L144.1 219.1L144.2 218L144.1 216.8L144.2 215.8L144.7 216.5L145.3 215.5L146 214.7L146.7 214L147.6 213.5L148.7 213.3L152 214H156.4L158 215.1L157.7 217.7L157 218.8L156.3 219.4L156 220.1L156.3 221.8L156.7 223L157.1 223.6L157.5 223.5L158.2 222.5L160.1 212.8H160.6L162.2 217L162.7 219L162.6 221.3L164.2 220.9L166 220.8L166.9 220.2L165.7 218L165.5 216.5L167.1 216.1L169.4 216.4L170.8 217L171.7 219L170.9 223L171.8 224.6L172.9 224.9L173.7 224.5L174.5 224L175.7 223.6L177.4 222.4L177.8 222.6L178.2 222.9L178.5 223.1L180.8 222L181.5 221.8L182.2 222.1L183.7 223.4L184.6 223.7L185.2 224L187.7 227.2L188.2 228L184.5 228.8L182.1 228.6L178.1 230.7L177.1 234.4L176.5 241.4L172.1 243.9L164.1 245.9L156.5 247.8L150.4 249.7L145.8 251.5L142.1 253.2Z" fill="#D7D7D7" stroke="white" stroke-width="0.5" stroke-linecap="round" stroke-linejoin="round"/>
<path d="M225 194.1L224.6 194.3L224.1 194.5H223.7H223.2L222.9 194.4L222.4 194.3L221.5 193.9L221.3 193.6L221.4 193.2L221.6 192.8L221.7 192.6L221.8 192.3L221.7 192L221.6 191.7L221.2 191.3L220.6 191.2L220 190.8L219.7 189.9L221.6 189.3L222.1 190L222.8 192.3L223.6 192.4L224.2 192.7L224.7 193.3L225 194.1ZM142.1 253.2L145.8 251.5L150.4 249.7L156.5 247.8L164.1 245.9L172.1 243.9L176.5 241.4L177.1 234.4L178.1 230.7L182.1 228.6L184.5 228.8L188.2 228L188.6 229.1L188.8 230.4L188.7 232.4L187.8 238.6L188.1 240.6L188.9 242.5L190 244.2L191.1 245.5L193.7 247L196.8 247.1L200 246.3L202.8 244.9L203.3 244.4L203.6 243.8L203.9 243.3L204.9 243.1L205.5 243.5L205.7 244.5V246.4L206 248.2L207 249.3L208.2 249.5L209.5 248.6L208.4 248.3L207.7 247.4L207.2 246.1L206.9 243.2L206.3 240.9L206.1 239.8L204.9 237.1L204.7 235.8L204.8 231.1L204.4 230L204.1 229.3L202.5 223.9L202 222.9L201.3 221.8L200.4 221L198.6 219.7L197.9 218.9L197.5 217.9L197.3 217L196.9 216.1L196 215.2L197.5 214.7L199.2 215H200.7L201.8 213.5H199.4L198.4 213.4L197.4 212.8L198.3 212.5L199.1 212.3L199.9 211.9L200.3 211H199.7L199.2 210.8L198.8 210.6L198.4 210.4L201.9 209.4L203.1 208.3L202.8 206.2L201.6 206.9L201.3 207.4L200.8 206.5L200.4 205.6V204.7L200.8 203.8L199.3 201.2L199.8 198.8L200.7 196.7L200.3 194.7L199.7 194.4L198.9 194.2L198.2 194L197.9 193.2L197.7 193L196.4 191.1L195.2 190.4L192.5 189.4L191.4 188.4L190.8 187.2L190.4 185.7L190.2 182.4L190.8 181.1H192.2L193.9 181.4L196.3 180.9L196.7 181.4L197 182.1L197.5 182.9L197.8 183.6L197.9 183.8L198.2 184.1L198.8 184.4L200.2 185.8L200.9 185.9L202.8 183.8L204.1 185.5L204.9 187.7L204.7 190L203.2 191.7L204.7 192.9H206.3L207.5 193.3L208.1 195.6L208.3 197.9L208.1 199L207.3 198.6L206.4 197.9L205.7 198.1L205.5 198.8L205.9 199.8L206.7 200.2L208.7 199.9L209.5 200.1L210 201.1L209.7 202.1L209.3 202.9L209 203.8L209.5 206.4L210.5 206.6L213.4 204.4L212.4 203.9L211.9 203.8L212.4 203L213.3 202.7L214.3 202.9L215.1 203.5L216 203.9L217 203.4L218.7 202L220 201.5L221 201.4L221.9 201.8L222.8 202.9L223.6 203L224.6 202.4H225.3L225.5 203.8L225.1 205L224.4 205.3L222.4 205L222 205.4L220.7 208L219.7 208.6L217.9 209.4L217 210.1L215.9 211.7L214.9 213.5L215.7 214.2V214.8L215.4 215.5L215.6 216.2L216.4 217L217.2 217.5H217.8L217.7 216.5L218.8 215.6L218.3 212.8L219.2 211.6L220.7 212.4L223.6 211.8L225.3 213.2L225.5 214.1L225.4 216.4L225.7 217.4L226.8 218.8L227.1 219.5L227.4 220.7L227.9 224.9L227.6 227.7L227.7 228.2L227.8 229.1L227.4 230L226.8 231L226.5 231.9L226.8 232.5L227.6 232L228.4 231.1L228.8 230.4L230.1 232L229.9 234.2L228.8 236.6L227.7 238.6L227.6 239.3L228.3 239.6L229.2 239.8L229.8 240.1L230.1 241.2L230 243.8L230.3 244.9L229.7 244.5L229.1 243.8L228.7 242.9L228.4 241.9H227.9L228.2 244.1L228.7 246.1L228.8 247.6L227.9 248.6L230.3 249.8L231.1 250.6L231.8 252.2L232.5 255.7L232.7 259.2L232.9 259.9L230 261L229.7 264.3L228.2 266.7L226.9 267.3L226.6 268.9L228.3 270.3L228.1 271.5L225.8 270.8L223.7 269.6L222.9 270.8L222.3 272.2L223.3 273.3L224 275L223.5 276.4L223.3 278.5L224.5 280.9V283.6L225.9 286.7L227.7 289.5L230.2 295.8L231.1 303L231.6 304.1L233.5 306.5V308.5L232.9 310.5L234 314.3L234.8 315.8L235.9 316L237.1 316.2L239.4 317.2L240.3 319.7L241.9 321.3L241.8 325.1L242.9 330.3L246.3 333.2L250.3 333.3L252 334.7L253 335.7L254.7 337.3L255.6 339.8L256.8 341.8L257.5 343.3L258.3 344.4L269.1 349.2L271 350.9L271.6 354.5L270 361.6L268.6 364.1L266.7 366.4L265.7 368.2L264.8 369.6L263.6 372.2L262.6 374.1L261.2 376.8L253.8 389L254 396.4L254.6 397.9L251 405.2L247.3 409.6L243.3 415.6L241.6 418L238.4 414.3L237.3 414.1L235 417.2L234.4 420.5L234.1 420.8L233.9 421.3L232 423.6L229.2 424.7L228.3 425.7L227.9 426.9L227.1 428.1L226.5 429.5L226.2 430.9L225.4 432L222.6 433.4L219.7 433.1L213.3 433.2L207.1 431.3L206.9 427.8L208.5 424.4L210 420.6L210.9 416.4L210.3 414.6L209.4 413.1L209.8 411L211 409.2L212.2 406.7V404.7L209.9 404.6L207.6 404.9L205.1 403.5L205.7 400.2L206.3 399L206.2 397.6L204.8 396L204.4 393.7L205.7 391.2V388.6L203.6 386.9L202.4 384.4L204.8 380.5L206.4 376.7L207.3 373.7L209.3 371.4L209.6 369L209.5 367.8L209.3 365.2L208.1 362.6L205.1 360.6L201.7 359.3L197.9 359.7L194.2 364L191.5 367.3L190.1 367.5L188.6 366.7L186.6 367.6L186.4 369.1L185.7 369.5L185.3 369.9L185 370.5L183.9 371.6L181 373.2L179.3 373.4L176.5 372.8L173.6 372.7L172.8 373.2L172.2 373.7L171.5 373.3L170.7 373.5L169.2 374.7L167.6 375.5L163.2 376.3L162.6 377.5L162.9 379.2L161.2 382.1L161 382.9V383.7L158.4 384.6L155.9 386.1L154 384.9L152.7 383.4L151.8 382.7L150.8 382.4L149.4 382.8L143.2 382.4L138.2 379.8L138.3 379.5L139.4 379.2L139 377.6L139.2 376.2L139.6 374.9L139.9 373.3L140 357.8L140.6 354.4L143.1 348.7L144 345.5L144.5 342.1L144.9 336.8L145.6 333.6L145.7 331.7L145.3 330.1L144.7 328.4L144.4 326.9L144.7 325.6L145.8 326.2L147.2 326.3L148.5 326L149.6 325.6L149.7 326.6L150.1 327.4L150.5 328.1L151 328.6H151.4V327.3L152.5 328.2L153.4 329.3L154.4 330L155.8 329.2L155.3 328.8L153.8 327.3L155.7 326.6L157.9 326.9L159.9 326.8L161.2 324.9H159.8L159.3 325.1L158.7 325.6L158.2 324.9L158.4 323.1L157 321.8L155 321.2L153.6 321.6L153.1 322.6L152.8 323.5L152.3 324.1L151.2 324.3L150.5 323.8L150.4 322.5L150.7 321L151 320L151.6 319.1L152.2 318.8L152.9 318.7L153.8 318.3L156.1 315.8L157.2 314.9L157.3 313.2L156.5 311.7L154.8 311.5L153.7 313L153.1 315.1L152.2 316.3L150.2 314.8L150 313.2L150.5 304.7L152.4 300.5L155.8 299.3L159.8 299.2L163.6 298.6L163.3 297.8L162.9 297.3L162.3 296.9L161.6 296.8L162.6 296L163.3 295L163.6 293.8L163.1 292.5L160.1 294.3L159.8 294.7L159.5 295.7L159.2 296.1L158.9 296L158.5 295.7L158 295.6L155.8 296.6L154.6 295.1L150.1 277.6L146 267.8L145.3 263.7V262.7L145.9 261.7L146.7 261.2L148.8 260.7L149.6 260.1L150.4 258.5L151 256.4L151.9 254.7L153.6 254L153.8 253.7L153.4 253L152.7 252.7L151.7 253.2L151 253.8L149.6 254.6L149.1 255.2L147 258.9L146 259.4L144.5 258L143.4 256.4L142.1 253.2Z" fill="#D7D7D7" stroke="white" stroke-width="0.5" stroke-linecap="round" stroke-linejoin="round"/>
<path d="M260.3 562.3L257.6 569.3L256 572L253.6 578.2L252.4 582.6L251.3 584.4L247.8 585.9L246.4 587.6L245.1 589.7L244.3 591.7L242.1 600.2L240.6 603.7L233.4 613.8L222.7 622.7L220.1 625.5L216.5 628.1L212.4 630.2L196.9 642.5L192 644.4L190.9 645.3L188.5 648L187.4 648.4L182 648.9L180.8 648.3L180.2 645.4L179.1 644.4L179.5 643L179.1 642L178.5 641L178.1 639.9L178 638.5L179.1 631.5L178.8 630.5L178 629.9L169.6 626.6L167.7 626.4L165.9 626.8L164.3 628L160.8 631.8L160.1 632.3L159.4 632.4L158.2 632.1L156.7 631L155.7 630L155.6 629.2L156.5 627.4L156.4 625.9L155.9 624.2L155.8 621.9L156.3 619.9L157.9 616.2L158.2 613.8L157.4 611.7L155.6 611.1L153.5 611.5L152 612.2L150.9 613.1L150.1 614L149.5 615.2L149.1 616.7L152.4 617.5L153.4 618.4L152.9 620.6L152.5 621.3L151.8 621.9L151 622.1L150.2 621.5L149.5 621.3L148.7 621.9L147.8 622.7L146.9 623.2L143.7 622.5L140.2 620.7L137.6 618L137 614.8L137.8 612.9L139.1 612.2L142.3 611.6L143.4 610.5L146.2 607.2L147.9 605.5L149.7 601.5L150.8 600.6L152.3 599.9L153.2 598.9L153.9 598.8L154.8 601.3L155.7 600.4L156.1 599.6V598.6L155.8 597.4L155.4 597.1L154.6 596L154 594.7L154.6 594.2L155.4 593.8L156.7 592.1L157.5 591.7L158.3 591.4L159.2 590.8L160 589.9L160.6 589.1L161.2 587.9L161.4 587L161.6 584.6L163.1 580.4L163.7 579L167.9 574.4L171.9 567.7L175.2 560.3L176.3 562.6L179.2 565.1L180.7 567.7L183.7 568.8L185.1 568.6L188.7 567.1L191.3 566.8H193.4L195.2 566.9L197.1 564.3L198.9 563.5L206.7 565.8L210.3 566.2L214.2 563.8L216 562.4L218.9 563.8L220.8 565.5L221.4 569.5L223.8 569.7L229.5 568.4L235.4 565.7L242 562L245.6 561.3L249.3 560.8L253.7 561.3L260.3 562.3Z" fill="#D7D7D7" stroke="white" stroke-width="0.5" stroke-linecap="round" stroke-linejoin="round"/>
<path d="M155.9 386.1L158.4 384.6L161 383.7V382.9L161.2 382.1L162.9 379.2L162.6 377.5L163.2 376.3L167.6 375.5L169.2 374.7L170.7 373.5L171.5 373.3L172.2 373.7L172.8 373.2L173.6 372.7L176.5 372.8L179.3 373.4L181 373.2L183.9 371.6L185 370.5L185.3 369.9L185.7 369.5L186.4 369.1L186.6 367.6L188.6 366.7L190.1 367.5L191.5 367.3L194.2 364L197.9 359.7L201.7 359.3L205.1 360.6L208.1 362.6L209.3 365.2L209.5 367.8L209.6 369L209.3 371.4L207.3 373.7L206.4 376.7L204.8 380.5L202.4 384.4L203.6 386.9L205.7 388.6V391.2L204.4 393.7L204.8 396L206.2 397.6L206.3 399L205.7 400.2L205.1 403.5L207.6 404.9L209.9 404.6L212.2 404.7V406.7L211 409.2L209.8 411L209.4 413.1L210.3 414.6L210.9 416.4L210 420.6L208.5 424.4L206.9 427.8L207.1 431.3L213.3 433.2L219.7 433.1L222.6 433.4L225.4 432L226.2 430.9L226.5 429.5L227.1 428.1L227.9 426.9L228.3 425.7L229.2 424.7L232 423.6L233.9 421.3L234.1 420.8L234.4 420.5L235 417.2L237.3 414.1L238.4 414.3L241.6 418L243.7 424L243.9 430.5L245 433.9L244.1 436.6L242.7 439.5L244.2 442.6L244.3 445.6L245.9 447.2L245.8 450L247.2 451.5L248 452H248.6L249.1 452.2L249.4 452.3V452.6L249.1 453.1L248.9 454.1L247.9 456.7L246.6 458.4L246 459.4L245.9 460L246.2 460.4L247.2 461.3H247.9L248.6 462.1L248.2 463.5L248.9 465.9L250 467.9L249.7 468.4L249.2 468.6L248.8 469.7L248.7 470.9L245.5 482.7L244.7 488.9L243.2 495.9L243.1 496.6L243.3 497.7L244.6 499.3L246.1 499.7L250.7 499.5L254.9 503.2L255.9 503.9L257.1 504.1L257.6 504.3L258.1 504.6L258.6 505.7L258.4 507L258.7 508.3L259.5 509.4L261.9 511.8L262.1 513.5L261.6 515V517.5L263.6 522.5L263.8 525.3L263.4 528.5L263.2 531.3L265.3 533.7L267.8 535.4L275.3 536.1L277.4 537.2L280.2 539.8L280.1 540.6L278.9 542.6L277.2 542.7L275.4 542.3L274.1 542.8L270 549.5L265.8 553.7L265.2 554.9L265 555.8L264.8 556.9L264.4 557.9L263 560.6L262.5 561L261.3 561.1L260.8 561.5L260.3 562.3L253.7 561.3L249.3 560.8L245.6 561.3L242 562L235.4 565.7L229.5 568.4L223.8 569.7L221.4 569.5L220.8 565.5L218.9 563.8L216 562.4L214.2 563.8L210.3 566.2L206.7 565.8L198.9 563.5L197.1 564.3L195.2 566.9L193.4 566.8H191.3L188.7 567.1L185.1 568.6L183.7 568.8L180.7 567.7L179.2 565.1L176.3 562.6L175.2 560.3L177.1 553.9L177.8 552.3L178.4 550.5L178.7 545.2L179.1 543.1V542.6L179 542L179.1 541.5L179.3 541.2H179.8L180.5 541.1L180.9 540.8L180.5 539.4L180.2 538V536.6L180.3 535.8L180.9 534.2L181.8 528.9L182.1 525.2L181.9 524.2L181.5 523.4L180.4 521.2L179.5 515.2L178.2 510.2L177.2 507.8L176.1 505.7L170.8 500.1L169.3 497.5L162.9 490.1L158 487L154 485.2L152.2 484.8L149.1 484.9L151 481.3L152.5 479.8L154.3 478.7L156 476.6L158.1 474.9L159.7 474.4L160.8 472.9L160.6 471.6L160.7 469.8L161 469.2L161.7 468.8L163.3 468.3L164.6 467.1L164.1 466.3L163.5 465.5L163.6 461.2L164.7 457.1L164 454.4L163.1 451.6L159.8 448.7L157.7 446.1L157.1 444.2L157 442.2L157.4 441.3L157.8 440.3L157.4 439L156 438.3L152.8 436L153 434.7L149.9 430.6L148.3 426L145.8 423.4L145.3 419.2L147 415.6L151.2 410.7L152.6 405.6L152.5 403L151.7 399.7L152.2 397.8L151.7 394.8L151 391.4L152.6 388.2L152.8 387.8L153.2 387.4L154.7 386.9L155.9 386.1Z" fill="#D7D7D7" stroke="white" stroke-width="0.5" stroke-linecap="round" stroke-linejoin="round"/>
<path d="M138.2 379.8L143.2 382.4L149.4 382.8L150.8 382.4L151.8 382.7L152.7 383.4L154 384.9L155.9 386.1L154.7 386.9L153.2 387.4L152.8 387.8L152.6 388.2L151 391.4L151.7 394.8L152.2 397.8L151.7 399.7L152.5 403L152.6 405.6L151.2 410.7L147 415.6L145.3 419.2L145.8 423.4L148.3 426L149.9 430.6L153 434.7L152.8 436L156 438.3L157.4 439L157.8 440.3L157.4 441.3L157 442.2L157.1 444.2L157.7 446.1L159.8 448.7L163.1 451.6L164 454.4L164.7 457.1L163.6 461.2L163.5 465.5L164.1 466.3L164.6 467.1L163.3 468.3L161.7 468.8L161 469.2L160.7 469.8L160.6 471.6L160.8 472.9L159.7 474.4L158.1 474.9L156 476.6L154.3 478.7L152.5 479.8L151 481.3L149.1 484.9H146.5L140.8 482.8L136.5 482.3L134.7 481.9L133 480.8L125.5 473.6L124.1 471.9L120 465.4L117.1 462.4L113.6 460.3L109.8 459.1L97.8 457.2L93.7 455.8L84.1 448.6L81.5 445.8L79.4 442.2L78.1 437.9L77.6 433.8L78 429.6L78.9 425.2L81 421.2L84.2 418.6L91.5 415.3L109.6 403.9L111.1 403.5L120.5 404.1L123.9 403L127 400.7L135.5 391.8L136.5 389.9L137.1 386.6L137.8 384.5L137.9 383.3V380.5L138.2 379.8Z" fill="#D7D7D7" stroke="white" stroke-width="0.5" stroke-linecap="round" stroke-linejoin="round"/>
<path d="M140.9 151L139.7 151.8L132.8 157.8L130.7 159.3L130 160.1L129 160.6L128.1 160.9L127.8 161H127.1L126.4 161.4L124.7 163L123.9 163.5L123.4 162.5L122.2 163.2L120.8 164.6L119.5 165.3L117.8 164.9L116.7 164.5L116.2 164.1L115.8 162.5L116.5 162.2L118.6 162.8L119.8 163.9L120.3 164L120.7 161.8L121.7 159L123.4 156.9L123.8 155.9L124 155.3V154.5L124.4 153.2L125.5 153.8L126.4 153.6L126.6 152.9L125.8 151.5L125.1 151L122.4 150.2L122.8 152.9L121.8 155.9L120.1 158.3L118.1 159.3L119.2 157.8L119.5 157.5L118.7 157.2L118 157.4L117.4 157.3L117.1 156.6L116.9 155.2L116.5 154.9L115.9 155.1H115.2L114.5 154.8H114L113.8 154.5L113.7 153.3L113.8 152.3L114.1 151.4L114.7 149.7L113.6 149.8L112.8 150.3L111.3 152.1L111.6 149.6H110.6L107.5 152.1L108.2 152.8V154.7L109.2 155.1H110.5L111.4 155.2L112 155.7L112.8 156.9L112.3 158.1V158.9L113 159.3L113.5 159.1L113.9 158.7L114.5 157.8H115.1L115.9 158.6L117.1 160.5L114.6 161.2L114.2 161.4L114 162.2L113.6 162.7L113 162.8H112.3L111.7 162.5L110.8 161.3L110.1 161L109.4 160.9L108.9 160.6L107.2 158.1L106.6 156.8L105.8 155.6L104.6 154.5L103.3 154.2L99.9 154.1L99.3 153.5L98.8 152.7L97.8 151.6L96.5 150.7L95.6 150.2L94.5 149.6L94 148L93.9 144.6L93.5 143.2L91.5 141.1L90.7 138.5L89.8 137.5L87.6 135.9L90.2 133.5L90.9 132.1L90.5 129.9L90.1 129.3L89.4 128.6L88.6 128L88.1 128.1L88 129.2L88.5 130.1L89.2 130.7L89.6 131.1L89.1 133L86.5 134.5L86.2 135.9L89.8 141L90.3 141.9L91.7 142.8L92.3 144.8L92.7 147.1L93.2 148.7L93.7 149.5L94.6 151.4L95.1 152.4L95.8 152.9L96.7 153.3L97.5 153.8L98.1 155.5L98.7 156.1L99.5 156.7L100 157.2L103.9 163.2L104.8 163.7L105.8 163.5L106.9 163.6L107.5 164.7L106 165.3L106.7 166.4L108.2 167.9L108.9 169.8L108.4 171.6L107 172.8L103.7 174.2L100.3 174.3L98.6 171.3L96.3 162.8L87.2 150.2L84.6 145.1L68.7 123.6L52.8 102.1L52.3 100.5L52.9 99.1L55.2 95.9L55.7 94.5L55.9 92.5L56.4 90.5L57.3 89.4L58.6 90.1L59 89.2L59.1 88.8L59.8 89.6L60.5 90.6L61.2 91.4L62.3 91.8L62.4 91.2L62.3 88.2L62.5 87.1L64.4 90.1L64.8 88.6L64.9 86.9L65.2 85.3L66.4 84.1L67.1 84L67.5 84.5L67.9 84.7L68.8 84.1L69.1 83.5L69.5 81.7L70.7 79.7L68.1 80.5L67.3 80.2V79.2L67.2 78.6L66.9 78.2L66.1 78.1L65.9 78.6V81.7L65.1 80.5L63.9 76.4L62.7 77.7L63 79.3L63.9 80.9L64.4 82.3L64 83.8L62.9 84.6H61.5L59.7 83.4L59 83.3L58.6 83.6L59.3 85.3L58.8 85.7L58 85.9L57.4 86.2L56.8 86.6L56.3 86.3L55.5 85L54.9 84.9L54.1 85.4L52.8 86.5L53.4 87.7L52.9 88.3L52 88.7L51.4 89.4V89.9L51.5 90.4L51.7 90.6H51.9L51.6 97L51.4 97.8L50.7 97.9L50.2 97.3L44.1 88.8L43.2 86.5L43.6 85L46 82.3H45.5L44.6 82.2L44.1 82.3L45.5 80.7L46.1 79.8L46.5 78.8L44.4 79.1L43.1 80.5L42.3 82.5L41.6 84.7L40.9 84.1L38.7 81.5L38.3 80.6L38.8 79.9L41.3 78L42.2 77L41.1 76.6L39.1 77.8L37.8 78.1L36.6 77.8L35.6 76.9L33.9 74.7L31.1 71.7L30.6 70.5L30.8 68.8L31.8 68.4L33.1 68.7L34.4 69.3L36.7 66.1L38 62.1L38.3 57.7L37.4 53.3L35.1 48L34.2 46.5L29.9 42.2L28.6 40.3L26.4 34.7L25.5 33.8L24.3 33.2L9.89999 14.1L6.99997 11.6L1 8L1.79999 7.3L2.19998 6.7L2.99997 5.1L2.80002 4.4L2.69998 3L3.10001 2.2L4.19998 3L5.80002 3.9L9.89999 4L11.7 5.1L12.6 4.2L14.8 3.7L17 2.2L25 2.9L26.2 2.7L27 2L27.7 1.2L28.5 1L29.6 2.2L27.6 3.5L27.1 5.2L27.2 9.8L27 10.9L26.7 11.6L26.1 12L25 12.1L24.6 11.6L24.4 10.6L23.9 9.6L22.9 9.2L23 8.8L23.2 7.8L23.3 7.4L21.9 6.9L21.4 7L20.9 9.2L20.6 11.1L20.1 11.6L19 10.9L18.9 11.8L18.6 12.4L18.2 12.9L17.5 13.3L18.2 14.1L20.4 15.7L20.6 14.8L21 14L21.5 13.4L22.3 13.3L22 14.6L21.7 15.2L21.4 15.7L22.1 16.2L22.8 16.3L23.4 15.9L23.8 15L24.2 16.1L24.3 17.2V22.1L24.6 22.7L25.3 22.1L26.1 20.1L26.2 17.6L25.8 15.1L24.7 13.3L26.6 14.2L27.6 18.4L28.3 23.4L29.1 26.8L31.4 29.4L34.3 32L36.7 34.9L37.4 38.5L33.9 34.4L32.4 33.3L32.7 36.3L35.7 39.3L45.1 44.9L44.9 45.9L43.4 47.7L42.9 48.5L42.7 49.3V52.9L42.9 53.4L43.3 53.3H44.1L46.4 54H47L47.5 53.2L47.8 52.2L48.1 51.3L49.2 50.9L50 49.9L49.9 47.4L48.9 43.3L49.3 41.4L50.6 40.8L52.4 40.5L54 39.5L54.5 38.3L54.4 37.3L54 36.5V35.9L54.8 35.2H55.4L55.8 35.8L56.2 36.8L56.3 37.6L56.1 38.4L55.7 39.8L57.8 38.7L58.6 38.5L58.3 39.4L58.5 40.1L59.6 41.5L56.7 42.7H53.7L53 43L52.6 44.4L52.9 46L53.6 47.5L54.3 48.6L55.2 49.9L56.4 51.1L57.8 51.9L59.3 52.2L62.8 51.8L64.1 52.2L65.4 54L66.2 52.6L66.4 52.2L65.6 51.2L64.7 50.3L64 49.3L63.9 48L64.6 46.5L65.6 46.4L66.5 47.3L67.3 48.6L68.2 47.8L69.1 47.6L69.9 48.1L70.7 50L71.7 50.4H73.8L74.1 50.2L74.2 49.8L74.5 49.4L75 49.2L75.7 49.4L75.9 49.9L75.8 50.5L76 50.9L76.4 51.5L76.6 52.1L76.9 52.6L77.5 52.7L78 52.8L78.5 52.9L79.4 53.3L78.5 53.8L78.1 54.6L77.8 55.5L77.4 56.3L75.9 57.5L75.2 58.2L75.3 59L77.7 61L79.2 60.9L79.5 60.6L79.4 60V59.2L80.9 56.3V55.8L80.7 54.5L80.9 54L81.4 53.5L82.5 53.3L83.8 52.7L84.9 52.6L86.9 52.7L86.7 53.2L87.3 54.2L88.5 55.7L91.4 57.9L92.5 59.2L92.9 61.3L93.9 62.9L96.1 63.3L100.2 62.8L101.9 63.3L103.7 64.5L105 66.2L105.6 68.4L102.6 69.3L101.8 69L101.6 68.2L101.5 67.3L101.2 66.4L100.9 66.5L100.3 67L99.6 66.9L98.7 65.8L97 66.7L96.3 67.3L97 67.8L98.3 69.9L95.9 70.2L95.7 71.4L96.8 72.3L98.3 71.7L99 72.2L99.7 72.4L100.5 72.2L101.2 71.7L102.1 73L101.9 74.2L101.4 75.3L101.2 76.4L101.7 77.5L104.3 80.2L104.7 81L104.9 82L105.1 84.4L105.3 84.6L105.8 83.7L106.3 82.3L106.5 81.1L107.9 81.9L108.6 82.2L109.4 82.3L109.3 81.9L109.1 81L108.9 80.6L110 80.5L110.6 80.9L111 81.5L111.6 81.7L112.2 81.4L112.4 80.5L112.1 79.7L111.6 79.3L110 79.2L108 78.6L106.2 77.7L105.6 76.4L106 77L107 76L108.7 75.9L112.3 76.4L112 75.5L111.8 75.2L112.5 75.1L113.5 75.3L114.2 75.5V75.8L115 75.3L115.1 75V74.6L115.4 73.8L117.4 71.7L119.5 69.9L120.1 72L119.5 73.8L118.5 75.5L118.1 77.6L118.6 79.6L119.8 80.5L121.4 80.7L123 80.6V81.1L122.3 82.3L124.4 85L123.4 85.9L123 85.6L121 83.5L118.8 81.8L118.1 81.1L119.3 83L121.8 88.8L123.4 90.1L124.9 90.2L126.3 90.6V90.5V90.2L126.5 90L126.8 90.1L127.1 90.4L127.3 91.1L127.5 91.3L128.1 91.9L129.8 94.9L130.2 96L127.4 96.4L127.7 97.4L131.4 100.5L134.8 104.1L135.4 106.1L134.5 109.1L133.4 108.5L130.3 107.9H129L128.3 108.3L129.4 109.3L132.1 110.8L131.7 110.9L130.7 111.5L132.5 111.9L133.3 112.2L133.6 113L133.3 113.9L132.7 114.5L131.9 114.9L131.1 115.1L135.3 117.6L136 118.6L136.1 119.6L135.6 121.7L135.8 122.5L137.4 125.8L135.5 126.3L134.1 125.4L132.7 123.9L131.1 122.8L131.6 121.2L129.6 120.6L129.7 119.2L128.6 119.3L126.8 120.1L125.8 120.4L125.3 120.2L124.6 119.4L124.1 119.2L123.7 119.5L123.3 120.7L123 121H121.8L121.7 120.9L121.9 120.2V118.6L121.7 117.3L121.4 116.3L120.8 115.3L120 114.4L119.7 116.3L120 121L119.8 122.5L119.4 123.4L119.3 124.5L119.5 125.6L120 126.3L121.1 126.5L121.7 125.7L122.2 124.6L122.7 123.7L124 123.4L128.7 124L130.2 124.6L131.3 126.1L131 127.8L129.8 129.5L128.3 131.1L129.4 132.4L129.7 134.5L129.6 136.7L129.7 138.3L130.6 139.4L133.7 141.8L135 142.5L135.9 142.6H137.7L138.5 143.1L139.1 144.2V145L138.7 145.8L138.5 146.7L138.8 148.8L139.6 149.8L140.6 150.7L140.9 151Z" fill="#D7D7D7" stroke="white" stroke-width="0.5" stroke-linecap="round" stroke-linejoin="round"/>
<path d="M254.6 397.9L254 396.4L253.8 389L261.2 376.8L262.6 374.1L263.6 372.2L264.8 369.6L265.7 368.2L266.7 366.4L268.6 364.1L270 361.6L271.6 354.5L271 350.9L269.1 349.2L258.3 344.4L257.5 343.3L256.8 341.8L255.6 339.8L254.7 337.3L253 335.7L252 334.7L250.3 333.3L246.3 333.2L242.9 330.3L241.8 325.1L241.9 321.3L240.3 319.7L239.4 317.2L237.1 316.2L235.9 316L234.8 315.8L234 314.3L232.9 310.5L233.5 308.5V306.5L231.6 304.1L231.1 303L230.2 295.8L227.7 289.5L225.9 286.7L224.5 283.6V280.9L223.3 278.5L223.5 276.4L224 275L223.3 273.3L222.3 272.2L222.9 270.8L223.7 269.6L225.8 270.8L228.1 271.5L228.3 270.3L226.6 268.9L226.9 267.3L228.2 266.7L229.7 264.3L230 261L232.9 259.9L233 260.6L234.3 263.4L234.6 264.7L234.8 265.3L235.8 266.1L236.1 266.9V268L235.7 267.9L235.2 267.3L234.6 267.5L234 268.9L234.7 269.4L237.6 269.9L238.7 270.4L240 271.2L241.2 272.2L242.1 273.2L242.9 274.4L244 277L244.6 278.1L246.6 280L247.4 281.1L247.7 282.7L245.2 280.7L244.3 280.2L243.3 280.1L242.2 280.3L241.1 280.1L240 279L240.7 278.6L242.9 277.8L240.4 276.1L239.3 275L238.3 273.8L236.9 272.9H235.1L231.8 273.5L232.2 274L232.8 275L233.2 275.4L232.9 275.9L232.7 276.5L232.6 277.2L232.7 277.8L233.2 278.5L233.6 278.6L234 278.4H234.2L234.6 278.7L235.3 278.8L235.6 279L235.7 279.5L235.5 280L235.3 280.5L235.1 280.8L235.5 282.8L235.6 283.3L235.9 283.7L236.3 283.9H237.6L238.1 283.7L238.5 283.3L238.8 282.8L239 282.7L240.3 283.3L240.8 284.4L241.2 285.7L241.9 287L243 286.2L243.7 286.7L244.3 287.7L245.1 288.2L246.1 287.7L246.4 286.8L246.9 286.1L248.2 286.3L249.2 286.9L249.6 287.7L249.7 288.8V290.3L250 291.1H250.9L252 290.8L253.1 290.6L252.1 286.3L250.5 283.7L250.1 282.4L251.1 282.1L252.5 283.3L255 287.8L256.7 288.8L258.6 289.3L262.9 291.4L264.9 291.9L265.7 292.2L267.4 293.9L268.3 294.3H270.4L270.7 294.6L271.1 295.2L271.5 295.5L272.4 294.9L286.5 305.2L289.3 306.6L293.8 307.3L298 309L302.9 309.7L306.7 312.2L313.3 313.1L315.9 314.5H311.8L311 314.8L311.4 315.4L314.7 317.7L315.6 318.1L316.6 318.3L317.5 317.8L317.7 316.7L317.4 315.5L316.9 314.5L318.1 314.2L318.8 314.7L319.4 315.3L320.3 315.8H324.9L325.1 316L325.8 317.3L326.3 317.6L326.6 317.4L326.9 317.1L327.3 317L327.6 316.7L327.5 316.1V315.4L328 315.2L328.8 315.1L330.9 314.5L337.2 314.1L338.9 313L340.2 311.9L345.7 308.5L347.8 306.6L348.6 305.6L348.8 304.8V302.6L350 300.4L350.2 299.5L350.7 299L353.6 297.3L354.7 295.8L355.5 292.5L356.3 290.9L357.4 289.7L357.8 288.9L358 287.9L358.5 287.2L365.5 285.2L367 285.1L368.2 284.7L369.2 283.7L370.8 281.1L371.9 280.5L375.1 280.2L376.4 279.6L377.3 278.6L377.6 277.7L377.2 276.8L376.4 275.4L379.2 275.9L382.4 276.1V277.6L381 279.8L376.9 281.1L375.4 281.9L375.2 282.9L375.6 283.7L376.3 286.3L376.2 289.2L375.6 291L375.4 293L377 294.4L378.8 292.8L380.4 292.9L381.1 294.8L379.2 298.2L376.5 300.8L372.8 307.8L368.8 321.9L365.9 325.8L362.9 323.9L360.1 321.6L357.5 318.8L355 318.1L354.2 318.8L355 320.9V324.4L354.7 326.4L353.2 328.1L352.9 329.2L352.4 330.2L351.5 330.9L350.4 331.4L348.8 333L347.1 334.4L345.2 335.3L343.2 335.5L341.5 336.3L340.8 337.7L341.3 339.3L341 342.5L339.6 345.4L336.9 347.9L328.3 351.4L323.6 354.8L323.7 357.7L324.4 360.9L319.2 366.6L318.6 367.4L318.1 368.4L314.7 369.6L313.7 371.3L312.4 372L311.8 371.7L311 372L309.6 373L308.4 374.4L307.9 375.8L307.3 377L306.4 378.3L305.2 379.6L303.4 379.5L301.5 379.1L297.4 376.7L291.4 378.3L289.6 379.3L287.5 380.8L286.1 382.9L286.2 387.5L285.7 388.3L285.3 389.3L285.6 392.2L285.3 392.7L284.8 393L283.5 392.7L279.6 391L276.7 389.8L274.5 388.8H273.2L272.7 389.9L272.3 391.2L270.6 395.7L268.7 399.2L267.8 403.5L267.9 405.4L267.3 405.9L266.4 406.2L264.9 406L263.8 405.3L260.2 402.8L257.5 397.9H254.6Z" fill="#D7D7D7" stroke="white" stroke-width="0.5" stroke-linecap="round" stroke-linejoin="round"/>
<path d="M318.6 367.4L319.2 366.6L324.4 360.9L323.7 357.7L323.6 354.8L328.3 351.4L336.9 347.9L339.6 345.4L341 342.5L341.3 339.3L340.8 337.7L341.5 336.3L343.2 335.5L345.2 335.3L347.1 334.4L348.8 333L350.4 331.4L351.5 330.9L352.4 330.2L352.9 329.2L353.2 328.1L354.7 326.4L355 324.4V320.9L354.2 318.8L355 318.1L357.5 318.8L360.1 321.6L362.9 323.9L365.9 325.8L368.8 321.9L372.8 307.8L376.5 300.8L379.2 298.2L381.1 294.8L380.4 292.9L378.8 292.8L377 294.4L375.4 293L375.6 291L376.2 289.2L376.3 286.3L375.6 283.7L375.2 282.9L375.4 281.9L376.9 281.1L381 279.8L382.4 277.6V276.1L396.5 276.8L398.2 277.3L399.1 278.1L398.1 279V279.6L399 280L400.3 281.4L401 282.1L402.2 282.5L403.4 282.7H405.9L406.8 282.9L408.1 284.2L409.1 284.5L411.2 284.4L412.1 284.6L413.1 285.1L414.3 286L415.8 287.6L416.9 289.4L416.8 290.9L416.2 291.7L414.8 294L412.2 296.8L410.8 300.9L409.8 303.1L407.2 304.9L406.2 306.9L404.2 312.5L403.5 313.9L402.3 315.4L401.8 316.3L401.5 317.3L402.1 319.4L403.1 321.3L403.8 323.2L403.5 325.6L402.3 326.8L400.9 327.8L400.2 329.2L402 333L401.7 334.8L400.9 336.6L399.8 338.2L399.4 340L400.4 341.8L401.8 343.4L402.5 344.6L402.3 345.6L401.7 346.5L400.5 347.7L400.2 348.8L400 350.8L399.6 352L400.4 352.3L401.2 353L401.6 353.9L401.5 355.2L401 355.9L398.4 357.3L398.1 358.1V364L397.7 364.7L389.8 373.6L382.6 380L381.3 380.7L378.6 378.1L376.8 377.7L375 378.1L373.5 379.2L372.9 379.5L372.4 379.3L372.2 379.4L372.1 380.5V380.9L372.3 381.9L372.5 382.3L373.8 383.7L374.4 384.7L374.2 385.8L373 388L372.6 390L372.5 394.8L371.7 400.1L370.8 402.8L367.4 401.1L365.3 398.7L355.5 395.1L345.5 387L342.9 382.5L338.8 376.2L335.9 374.2L318.6 367.4Z" fill="#07627E" stroke="white" stroke-width="0.5" stroke-linecap="round" stroke-linejoin="round"/>
<path d="M241.6 418L243.3 415.6L247.3 409.6L251 405.2L254.6 397.9H257.5L260.2 402.8L263.8 405.3L264.9 406L266.4 406.2L267.3 405.9L267.9 405.4L267.8 403.5L268.7 399.2L270.6 395.7L272.3 391.2L272.7 389.9L273.2 388.8H274.5L276.7 389.8L279.6 391L283.5 392.7L284.8 393L285.3 392.7L285.6 392.2L285.3 389.3L285.7 388.3L286.2 387.5L286.1 382.9L287.5 380.8L289.6 379.3L291.4 378.3L297.4 376.7L301.5 379.1L303.4 379.5L305.2 379.6L306.4 378.3L307.3 377L307.9 375.8L308.4 374.4L309.6 373L311 372L311.8 371.7L312.4 372L313.7 371.3L314.7 369.6L318.1 368.4L318.6 367.4L335.9 374.2L338.8 376.2L342.9 382.5L345.5 387L355.5 395.1L365.3 398.7L367.4 401.1L370.8 402.8L370.6 406.3L370.1 407.9L370.7 409.7L370.1 411L369.2 412.3L368.7 414.1L373.6 414.7L375.9 415.9L376.9 418.2L373 422.1L371.3 426.7L370.7 429.6L369.9 430.7L368.7 431.6L367.7 432.8L365.7 427.2L365.2 424.3L365.3 421.6L365.6 420.1L366.2 418.6L366.8 417.3L367.4 416.3L367.5 415.2L366.5 414.5L365.2 414.6L364.3 416L363.5 415.6L361.4 414.1L360.3 413.7L349.1 413.2L337.7 412.9L336.8 412.5L336.2 411.9L335.5 411.7L333.7 413.4L320.6 419.8L311 424.5L310.1 425.6L309.8 427.6L309.1 429.6L308.1 431.4L306.4 433.7L303.8 436.5L302.2 437.8L302 438.1L301.2 440.6L300.3 441.8L299.8 442.8L299.6 444L299.5 445.6L299.7 447.1L300.4 447.9L301.2 448.6L302 449.6L302.5 451.5L302.9 460L303.1 461.8L303.6 463.3H304L304.5 463.8L305.6 464.4L307.5 465.9L308 466.3L308.9 466.9L310.1 467L312.5 466.7L314.8 467.2L314.5 468.5L313.3 470.3L312.5 472.6L312.2 473.3L311.4 474L310.6 474.5L308.9 475.2L308.4 476.2L306.8 482.3V482.7L306.9 483.1V483.6L306.8 484.3L306.5 484.5L305.4 484.9L305 485.2L304.1 487L301.7 495.1L300.2 498.8L299.3 500.4L299 501.2L298.9 502.4L299 504.8V505.4L298.8 505.8L297.9 507.2L297.7 507.6L296.6 510.8L294.9 514.2L292 518.4L289 521.3L288.4 521.5L287.7 521.2L287.1 520.5L286.5 520.1L285.7 520.6L283.9 523.2L283.3 524.7L283 526.6L283.5 525.8L284.1 525.1L284.7 524.7L285.4 524.6L280.9 533.9L280.2 539.8L277.4 537.2L275.3 536.1L267.8 535.4L265.3 533.7L263.2 531.3L263.4 528.5L263.8 525.3L263.6 522.5L261.6 517.5V515L262.1 513.5L261.9 511.8L259.5 509.4L258.7 508.3L258.4 507L258.6 505.7L258.1 504.6L257.6 504.3L257.1 504.1L255.9 503.9L254.9 503.2L250.7 499.5L246.1 499.7L244.6 499.3L243.3 497.7L243.1 496.6L243.2 495.9L244.7 488.9L245.5 482.7L248.7 470.9L248.8 469.7L249.2 468.6L249.7 468.4L250 467.9L248.9 465.9L248.2 463.5L248.6 462.1L247.9 461.3H247.2L246.2 460.4L245.9 460L246 459.4L246.6 458.4L247.9 456.7L248.9 454.1L249.1 453.1L249.4 452.6V452.3L249.1 452.2L248.6 452H248L247.2 451.5L245.8 450L245.9 447.2L244.3 445.6L244.2 442.6L242.7 439.5L244.1 436.6L245 433.9L243.9 430.5L243.7 424L241.6 418Z" fill="#D7D7D7" stroke="white" stroke-width="0.5" stroke-linecap="round" stroke-linejoin="round"/>
<path d="M378.634 344.246H380.366V375.138C380.366 375.614 379.978 376 379.5 376C379.022 376 378.634 375.614 378.634 375.138V344.246Z" fill="#E1E3E8"/>
<path d="M368 339.446C368 333.125 373.149 328 379.5 328C385.851 328 391 333.125 391 339.446C391 345.768 385.851 350.892 379.5 350.892C373.149 350.892 368 345.768 368 339.446Z" fill="#F71717"/>
<path d="M371.71 336.369C371.71 334.738 373.038 333.415 374.677 333.415C376.316 333.415 377.645 334.738 377.645 336.369C377.645 338.001 376.316 339.323 374.677 339.323C373.038 339.323 371.71 338.001 371.71 336.369Z" fill="white" fill-opacity="0.86"/>
</svg>
